<svg width="150" height="50" viewBox="0 0 150 50" fill="none" xmlns="http://www.w3.org/2000/svg">
<path fill-rule="evenodd" clip-rule="evenodd" d="M33.5654 0.0078125C33.7123 0.0385386 33.8608 0.0112256 34.0118 0.00951857C34.2303 0.00610456 34.4309 0.0172004 34.6349 0.0445124C36.1097 0.23399 37.3558 0.944958 38.2956 2.09292C38.8601 2.78451 39.2236 3.61805 39.3462 4.50235C39.394 4.87106 39.4486 5.26197 39.4247 5.66311C39.2626 8.26032 37.3943 10.3523 34.8722 10.773C33.8958 10.9343 32.875 10.7764 32.0402 10.4427C28.1978 8.90556 27.451 3.53619 30.8735 1.0653C31.3214 0.737814 31.8149 0.477589 32.3381 0.292882C32.5242 0.225455 32.7222 0.156325 32.9407 0.156325C33.0331 0.110927 33.1358 0.0903394 33.2386 0.09658C33.2983 0.086338 33.358 0.0777998 33.4169 0.0667043L33.5654 0.0078125Z" fill="#2566AF"/>
<path fill-rule="evenodd" clip-rule="evenodd" d="M66.6455 0.483887L67.1516 0.512909C68.6298 0.5351 70.0262 0.497548 71.4985 0.497548L72.3332 0.541925L73.9694 0.523152C74.8536 0.529127 75.7378 0.536804 76.6195 0.543632C76.7799 0.474498 77.0112 0.540218 77.1862 0.542779L78.7933 0.543632C78.9786 0.543632 79.2747 0.494982 79.4232 0.578625C79.4273 0.581347 79.4313 0.584196 79.4352 0.587162L79.4488 0.599964C79.5521 0.69897 79.5888 0.879916 79.6409 1.00879C79.7296 1.22046 79.8158 1.43128 79.9029 1.64124L81.0133 4.37329L82.6153 8.23453L83.1855 9.6744L84.6774 13.2924C85.1007 14.2304 85.3994 15.2392 85.8544 16.1695C85.938 16.3411 86.0925 16.9317 86.2461 17.0154C86.2562 17.0178 86.2662 17.0207 86.276 17.0239C86.346 17.0307 86.3878 16.9752 86.4211 16.9249C86.5841 16.5306 86.7497 16.1363 86.9144 15.7419L87.948 13.172L92.9359 0.622156C92.9709 0.569239 93.0255 0.558996 93.0878 0.552168C93.296 0.558996 93.5043 0.565827 93.7126 0.570948L95.143 0.571801C97.3801 0.571801 99.6307 0.602523 101.901 0.602523C102.099 0.522294 102.478 0.602523 102.704 0.602523C102.832 0.544485 103.063 0.60167 103.211 0.60167L105.265 0.604236L105.493 0.631546C105.535 0.645202 105.575 0.692144 105.623 0.692144C105.555 0.931978 105.593 1.25716 105.593 1.52601L105.609 3.63843C105.575 5.47431 105.593 7.30251 105.593 9.11877L105.59 11.4104C105.55 12.7035 105.563 14.0827 105.563 15.4313C105.563 15.8281 105.586 16.2412 105.581 16.621C105.545 18.8 105.563 21.1762 105.563 23.3808C105.551 26.9237 105.544 30.4683 105.534 34.0103L105.474 38.4178C105.138 38.498 104.692 38.4562 104.342 38.451C103.868 38.4425 103.389 38.4476 102.913 38.4476C101.038 38.4476 99.1622 38.4476 97.287 38.4459C96.512 38.4579 95.778 38.4178 94.9928 38.4178C94.9382 38.4178 94.7547 38.4391 94.7547 38.3879H94.7248C94.6881 37.2263 94.7197 36.0143 94.7197 34.8476C94.7265 34.4789 94.7368 34.1127 94.7427 33.744L94.7547 25.1091H94.7248V25.139H94.6966C94.205 26.6096 93.7629 28.0895 93.2329 29.5499C93.0408 30.1234 92.8514 30.6953 92.6593 31.2671C92.2411 32.491 91.8212 33.7141 91.4021 34.938C91.2169 35.5952 90.9583 36.2268 90.7483 36.8738C90.6664 37.1221 90.3634 38.2641 90.1978 38.3776C90.0246 38.4946 88.7861 38.4357 88.5011 38.4229C88.0939 38.4212 87.6877 38.4212 87.2806 38.4178C86.1688 38.3998 85.057 38.3904 83.9451 38.3896C83.6097 38.3896 83.2836 38.3648 82.9636 38.3597C82.7536 38.3563 82.1519 38.4118 82.0213 38.3145C81.8916 38.2163 81.7832 37.7793 81.7294 37.6197L81.1695 36.1014C81.0363 35.713 80.9015 35.3247 80.7658 34.9346C79.9277 32.5738 79.0869 30.2139 78.2471 27.8531L77.4405 25.5623C77.3825 25.3925 77.2451 25.1791 77.2451 24.9905H77.2152V25.0502C77.1384 25.2252 77.1871 25.6622 77.1871 25.8841C77.1871 26.6173 77.1871 27.3547 77.1854 28.0878C77.1854 30.3803 77.1572 32.5474 77.1572 34.8757C77.1572 35.3093 77.2152 38.1677 77.0923 38.2949C76.9805 38.4118 75.3537 38.3299 75.0431 38.3299H68.9089C68.4643 38.3299 68.0196 38.3068 67.5988 38.3068C67.3086 38.3068 66.9766 38.3503 66.6762 38.3222C66.5977 38.3153 66.5302 38.3042 66.5046 38.2274C66.4167 37.9637 66.4893 37.5958 66.4935 37.3176L66.4833 35.859L66.5226 34.4899L66.5268 30.0825C66.5268 28.9558 66.5123 27.784 66.5447 26.6915L66.5593 18.2017L66.596 12.6352C66.5951 8.50936 66.6455 4.53375 66.6455 0.483887ZM136.887 6.70762H140.638C141.808 6.72554 143.04 6.76907 144.182 6.7153L144.865 6.72213C145.266 6.72213 145.698 6.67519 146.089 6.7264C146.14 6.73323 146.296 6.71103 146.296 6.76651H146.326L146.296 12.3936H146.326C146.406 12.3569 146.524 12.3655 146.625 12.3646C146.945 12.3587 147.275 12.3749 147.576 12.3902C148.243 12.421 148.911 12.4244 149.602 12.4244C149.677 12.4244 149.958 12.4013 149.958 12.4833C150.035 12.677 149.985 13.0141 149.972 13.2241C149.969 13.4836 149.963 13.743 149.958 14.0016C149.96 15.6293 149.962 17.2569 149.962 18.8845C149.948 19.1696 150.014 20.6692 149.892 20.7819C149.724 20.9372 148.835 20.81 148.588 20.8023C147.825 20.7764 147.06 20.7625 146.296 20.7605C146.214 23.2536 146.266 25.8184 146.266 28.4122C146.266 31.5693 146.236 34.7434 146.236 38.0004C146.226 38.1987 146.217 38.397 146.208 38.5953H137.066C137.012 38.5953 136.828 38.6183 136.828 38.5654C136.697 38.3034 136.773 37.8451 136.768 37.5233C136.751 36.5051 136.79 35.4792 136.79 34.4857C136.79 31.9883 136.798 29.4082 136.798 26.8042C136.805 25.7424 136.814 24.6841 136.819 23.6223C136.816 22.756 136.813 21.8906 136.808 21.0243C136.809 20.9389 136.799 20.8578 136.72 20.8228C136.586 20.7622 136.355 20.7989 136.202 20.7989L133.672 20.7802C133.609 20.7742 133.534 20.7614 133.502 20.705C133.427 20.5779 133.464 20.3534 133.464 20.1929C133.47 19.6672 133.479 19.1414 133.485 18.6157C133.49 16.5801 133.495 14.5453 133.502 12.5106C133.507 12.4508 133.519 12.3689 133.574 12.3399C133.742 12.2503 134.058 12.304 134.267 12.3023C134.613 12.2963 136.703 12.3399 136.802 12.2272C136.814 12.1939 136.824 12.1606 136.834 12.1274L136.844 11.7962C136.848 11.4582 136.849 11.1202 136.851 10.7822C136.891 10.0516 136.861 9.35006 136.861 8.6408C136.86 8.00494 136.887 7.34348 136.887 6.70762Z" fill="#CC2229"/>
<path fill-rule="evenodd" clip-rule="evenodd" d="M29.0692 11.709C29.9918 11.7201 30.9153 11.7295 31.838 11.7389C31.9788 11.6825 32.1896 11.7389 32.3441 11.7389C32.5336 11.6757 32.7742 11.7389 32.9697 11.7389C33.0687 11.7005 33.2189 11.7252 33.3265 11.7269C33.6329 11.7312 33.935 11.738 34.25 11.738L37.8219 11.7482C38.0916 11.7568 38.3647 11.7534 38.6276 11.7662C38.7428 11.7704 38.8665 11.7585 38.9647 11.8063L39.0014 11.8345C39.1209 11.9787 39.0714 12.3116 39.0748 12.5138C39.0836 13.0893 39.0839 13.665 39.0757 14.2405C39.085 14.6467 39.0936 15.0547 39.1038 15.461L39.1047 18.677C39.1252 20.0195 39.1047 21.3647 39.1047 22.7268C39.1047 27.3144 39.0731 31.8841 39.0731 36.5135L39.039 37.8825C39.0313 37.9977 38.9553 38.0924 38.9553 38.1505C38.7471 38.1001 38.485 38.1436 38.2699 38.1436H36.7507C36.1268 38.1616 35.5012 38.1351 34.8747 38.1266C34.3396 38.1163 33.8061 38.1419 33.2676 38.1419L31.4513 38.1206H29.2186C29.1622 38.1206 28.9804 38.1419 28.9804 38.0907H28.9506V36.5135C28.9506 34.7484 28.9693 32.9245 28.9693 31.2124C28.9693 27.6618 29.0095 23.7809 29.0095 20.1962C29.0095 18.275 29.0291 16.2983 29.0291 14.4189L29.0095 12.6333C29.0095 12.3406 28.9856 11.9599 29.0692 11.709Z" fill="#2566AF"/>
<path fill-rule="evenodd" clip-rule="evenodd" d="M72.7198 13.7944C72.7156 13.8328 72.6951 13.8832 72.7497 13.8832L72.7198 13.7944Z" fill="black"/>
<path fill-rule="evenodd" clip-rule="evenodd" d="M38.299 15.1037C38.3203 15.1404 38.3391 15.1924 38.3877 15.1924V15.1634L38.299 15.1037ZM49.2571 10.936C49.7197 10.9907 50.2027 10.9642 50.6542 11.0308C51.8884 11.2126 52.9826 11.7895 53.9897 12.422C54.3601 12.655 54.7289 12.8897 55.0976 13.1227C55.13 13.1338 55.1522 13.1219 55.1522 13.1697C55.2119 13.0041 55.1787 12.7642 55.1821 12.5739L55.2111 11.9491C55.2111 11.9073 55.2017 11.9193 55.2418 11.9193V11.8894H64.294L64.9487 11.9193C64.9487 18.679 64.8599 25.6368 64.8599 32.4929C64.8599 33.3712 64.9043 34.24 64.9188 35.1132C64.9291 35.7746 64.9436 36.4199 64.9734 37.0489L64.9862 37.491L64.9623 38.1491C64.9487 38.9411 64.8736 39.7025 64.7507 40.4441C64.3137 43.0644 63.3962 45.1154 61.358 46.8539C60.7742 47.3507 60.0863 47.7177 59.4316 48.0813C58.9341 48.3561 58.4032 48.5132 57.8706 48.7095C55.6839 49.5143 52.8435 49.4947 50.2983 49.4947C49.6548 49.4947 49.0292 49.4776 48.4215 49.4699C48.0545 49.4768 47.6883 49.4853 47.3205 49.4896C47.2368 49.4861 47.1344 49.4844 47.0951 49.411C47.0064 49.2463 47.0687 48.7957 47.0721 48.6011C47.0781 48.2161 47.067 47.8227 47.0789 47.4394L47.0832 42.0214L47.1079 40.0242C47.1156 39.9739 47.1088 39.8774 47.1711 39.8774C47.3537 39.7955 47.8189 39.839 48.0331 39.8578C48.7415 39.9175 49.4593 39.9107 50.178 39.9107L50.8036 39.9372C50.918 39.8843 51.1083 39.9073 51.25 39.9073L51.5171 39.8774C51.5922 39.8424 51.722 39.8475 51.8159 39.8475C51.9046 39.8373 51.9942 39.8296 52.083 39.8177C52.153 39.8074 52.223 39.7998 52.2913 39.7895C52.4201 39.7093 52.6378 39.6692 52.7974 39.6692L53.4443 39.4404C53.7345 39.3184 54.0128 39.1502 54.2714 38.965C54.4848 38.808 54.6572 38.5536 54.7724 38.3351C55.2768 37.375 55.1198 36.1544 55.1198 34.9647C55.0225 34.9647 54.9175 34.963 54.8355 34.9928C54.6708 35.0509 54.5155 35.2395 54.3772 35.353C54.1084 35.5749 53.825 35.7781 53.5297 35.9581C52.9442 36.3115 52.3194 36.6247 51.6614 36.8287C51.2244 36.9619 50.7498 37.06 50.2941 37.1291L49.5814 37.1744C47.2087 37.3775 45.179 36.4489 43.6453 34.916C43.2185 34.4893 42.8106 34.0412 42.4879 33.5427C42.1158 32.9692 41.7334 32.3709 41.474 31.7393C39.4384 26.777 39.5749 19.5957 42.4768 15.1848C43.577 13.5102 45.0339 12.0908 46.9227 11.4302C47.2317 11.3218 47.5919 11.146 47.9418 11.146C48.3242 10.9377 48.8457 11.0726 49.2571 10.936ZM52.6514 19.5701L52.2648 19.6913C51.8176 19.8807 51.3976 20.2034 51.11 20.6173C50.4648 21.5451 50.3555 22.7758 50.4144 24.0066C50.4357 24.4692 50.4349 24.8857 50.5219 25.3141L50.7891 25.9491C51.2099 26.9742 51.6947 27.9096 53.0372 27.8661C53.4469 27.8524 53.7593 27.6476 54.0606 27.4163C55.5337 26.2692 55.3229 23.6097 54.9217 21.8899C54.8347 21.516 54.7681 21.0867 54.5829 20.7633C54.3844 20.4204 54.1042 20.132 53.7672 19.9238C53.4302 19.7156 53.0468 19.5941 52.6514 19.5701Z" fill="#2566AF"/>
<path fill-rule="evenodd" clip-rule="evenodd" d="M116.132 11.4121L117.589 11.5427C118.448 11.6844 119.279 11.9916 120.022 12.3825C120.495 12.6318 120.932 12.9322 121.391 13.2173C121.574 13.3308 122.108 13.7942 122.296 13.7942V13.7644H122.326C122.305 13.4298 122.319 13.085 122.324 12.7513L122.34 12.3373C122.347 12.2938 122.34 12.2759 122.387 12.2759C122.534 12.2144 122.761 12.2571 122.924 12.2596C123.382 12.2673 123.84 12.2673 124.323 12.2759L127.116 12.269C128.073 12.2989 129.077 12.304 130.04 12.304L131.082 12.2767C131.18 12.2477 131.902 12.2827 131.957 12.3475C131.972 12.3928 131.984 12.4389 131.997 12.485C132.064 13.0133 132.014 13.5851 132.006 14.1228C132.006 15.4432 132.006 16.7627 132.004 18.0831C132.004 23.0744 131.974 27.9444 131.974 33.0902C131.972 34.3704 131.967 35.6524 131.964 36.9327C131.967 37.2596 131.972 37.5864 131.974 37.9125L131.955 38.3845C131.94 38.4138 131.925 38.4434 131.911 38.4732C131.785 38.6047 130.206 38.5432 129.921 38.5168C129.414 38.4681 128.901 38.5364 128.402 38.5364C127.122 38.5261 125.842 38.5185 124.561 38.5099C123.853 38.5099 123.122 38.5065 122.447 38.4749C122.388 38.4732 122.269 38.4852 122.269 38.4203C122.257 37.8835 122.249 37.3483 122.239 36.8115H122.149C122.046 36.96 121.891 37.0615 121.749 37.1597C121.522 37.3133 121.326 37.4832 121.095 37.6266C120.8 37.8084 120.487 37.9637 120.167 38.1113C117.868 39.1663 114.854 39.1202 112.681 37.8843C111.859 37.4174 111.138 36.8123 110.437 36.109C109.879 35.5526 109.45 34.8552 109.076 34.1921C107.268 30.9949 106.892 26.8588 107.284 22.7569C107.326 22.313 107.364 21.9025 107.419 21.4715C107.416 21.3836 107.414 21.2957 107.412 21.2078C107.445 21.107 107.48 21.0072 107.512 20.9065C107.599 20.4814 107.684 20.0555 107.769 19.6305C107.849 19.179 107.999 18.6967 108.162 18.2802C108.33 17.8475 108.463 17.4114 108.669 17C108.848 16.6441 108.983 16.2796 109.201 15.9451C109.483 15.5106 109.731 15.0446 110.068 14.6383C111.051 13.4511 112.23 12.4372 113.622 11.902C113.994 11.7586 114.421 11.5913 114.854 11.5913C114.934 11.5435 115.049 11.5325 115.152 11.5325C115.254 11.4795 115.439 11.5026 115.569 11.5026C115.756 11.471 115.945 11.4411 116.132 11.4121ZM119.825 20.9099C119.697 20.973 119.515 20.9577 119.386 21.0149C119.011 21.1779 118.597 21.5577 118.352 21.9034C117.347 23.3159 117.349 25.6963 117.869 27.3786C118.009 27.8301 118.104 28.2722 118.356 28.6656C118.649 29.116 119.07 29.4675 119.566 29.6745C119.83 29.7795 120.141 29.7547 120.449 29.7547L120.801 29.6233C121.034 29.5345 121.361 29.3732 121.528 29.1718C121.748 28.9055 121.882 28.5248 122.002 28.2082C122.675 26.4226 122.684 24.2462 122.033 22.4581C121.881 22.0399 121.69 21.5611 121.325 21.2615C121.092 21.0775 120.811 20.9636 120.515 20.9329C120.285 20.9158 120.04 20.9636 119.825 20.9099Z" fill="#CC2229"/>
<path fill-rule="evenodd" clip-rule="evenodd" d="M10.2503 0.00766451C10.4876 0.0230275 10.7394 0.0375402 10.9954 0.0375402H12.1562C12.2578 -1.38819e-05 12.4003 0.0332736 12.5138 0.0358341C12.8501 0.0401016 13.171 0.0375402 13.4962 0.0375402C13.655 -0.0273259 13.8905 0.0230256 14.0612 0.0230256L14.9241 0.00851754C15.1238 0.0179061 15.3227 0.0264451 15.5207 0.0366872C15.7196 -0.0358605 16.1207 0.0221745 16.3529 0.0187604C16.8146 0.0102254 17.2875 0.0281513 17.7492 0.0144953L18.4678 0.0153483C18.8314 0.0443674 19.213 0.155324 19.5441 0.262012C20.0332 0.419909 20.4813 0.563294 20.9404 0.778376C23.0085 1.74966 24.9954 3.46349 26.041 5.55457C27.1958 7.86415 27.3332 10.7259 26.6239 13.3445C26.2543 14.705 25.231 16.0808 24.0907 16.9684C23.8236 17.175 23.5667 17.3542 23.285 17.5326L22.7789 17.8074C22.7089 17.8655 22.6022 17.9773 22.6159 18.0754C22.6346 18.218 23.8287 18.9776 24.0276 19.1321C24.695 19.6467 25.3863 20.1682 25.9539 20.834C26.3031 21.2531 26.6075 21.7077 26.862 22.1902C27.5175 23.4013 27.9076 24.8369 28.0015 26.3271C28.0441 27.0039 28.0544 27.7123 28.0219 28.4122C27.9963 28.9525 27.8751 29.5004 27.7778 30.0176C27.5363 31.2842 26.9371 32.5013 26.2253 33.5434C26.0051 33.8652 25.8139 34.2186 25.5587 34.5233C24.2785 36.0485 22.6107 37.024 20.7552 37.5336C18.7495 38.0849 16.4724 38.0004 14.1807 38.0004C11.1499 38.0004 8.1567 37.9868 5.15835 37.9407C3.87895 37.9211 2.59102 37.9287 1.37648 37.9108C1.16055 37.9074 0.24218 37.9492 0.14232 37.8605C0.134639 37.8536 0.12781 37.8451 0.119275 37.8357C0.000638452 37.6659 0.0663578 37.0821 0.0663578 36.8388L0.0970841 33.0877C0.0970841 30.5075 0.126957 27.9266 0.126957 25.3464L0.143173 20.1042C0.188409 18.7122 0.140612 17.1639 0.140612 15.7582L0.182435 12.9578C0.186702 12.6327 0.151708 12.2904 0.156829 11.9464C0.167924 11.2764 0.186702 10.5587 0.186702 9.8622L0.173899 8.55292L0.186702 6.16909C0.178167 5.65358 0.203772 5.15087 0.188409 4.65072C0.150855 3.45923 0.2473 2.34968 0.191823 1.19745L0.201211 0.331999C0.186702 0.155324 0.248154 0.0665563 0.425682 0.0665563C0.621134 -0.0179403 1.07008 0.0443653 1.28943 0.0546074C1.65729 0.0486328 2.02429 0.0435152 2.3913 0.0366872C3.74836 0.0366872 5.0619 0.0648503 6.35154 0.0648503L8.43494 0.0366872L9.00081 0.0657033C9.12884 0.00681168 9.36099 0.0392439 9.50779 0.0435114C9.7425 0.0520464 10.031 0.0665561 10.2503 0.00766451ZM11.2037 9.08977C10.9929 9.16403 10.765 9.06673 10.6634 9.29035C10.5815 9.46788 10.6404 9.90743 10.6259 10.1293C10.5917 10.6005 10.6088 11.145 10.625 11.6204C10.6549 12.5294 10.6156 13.4495 10.6156 14.3593C10.6156 14.466 10.6267 14.6094 10.6754 14.6939C10.707 14.7485 11.499 14.7767 11.6211 14.7767C11.7883 14.7135 12.2049 14.7895 12.3952 14.8014C12.8424 14.8287 13.2973 14.8057 13.7651 14.8057L13.9733 14.7758L14.2712 14.7459C14.3847 14.6836 14.575 14.6572 14.7176 14.6572L15.2433 14.431C15.6155 14.2528 15.9336 13.9788 16.1651 13.6372C16.5876 12.9638 16.5705 11.7766 16.4118 10.9658C16.3785 10.801 16.352 10.6133 16.2692 10.4759C16.0482 10.1063 15.6624 9.86561 15.3014 9.67528C14.8661 9.44483 14.3659 9.3407 13.8564 9.25535C13.509 9.19561 13.1548 9.12477 12.7818 9.11965L11.6501 9.10002C11.499 9.09831 11.3471 9.11623 11.2037 9.08977ZM11.6501 22.488C11.3761 22.5614 11.0151 22.4838 10.7292 22.5316C10.6873 22.5384 10.6677 22.529 10.6677 22.5777C10.5277 22.8781 10.6259 23.4559 10.6148 23.8221L10.5892 28.0845L10.6011 28.7067L10.6387 29.0387C10.9417 29.1172 11.3257 29.0737 11.6501 29.0856C12.361 29.1104 13.0567 29.1291 13.7949 29.1291C13.8897 29.0856 14.0356 29.0993 14.1517 29.0993C14.2217 29.089 14.2917 29.0813 14.3608 29.0694L14.8994 28.9294C15.3227 28.7724 15.6854 28.5914 16.0192 28.2594C16.3256 27.9513 16.4818 27.5877 16.6405 27.2045C17.2158 25.8005 17.0348 23.933 15.6931 23.1282C15.041 22.7364 14.2865 22.64 13.4672 22.5725C13.2948 22.5572 13.1147 22.5222 12.9312 22.5196C12.5633 22.5119 11.9573 22.5828 11.6501 22.488ZM43.8373 30.2003C43.845 30.2216 43.8476 30.2156 43.8663 30.2105C43.8399 30.1952 43.8237 30.2199 43.8373 30.2003ZM0.126957 39.669C0.821707 39.7143 1.54292 39.6605 2.24023 39.6724C3.34551 39.6895 4.49006 39.6989 5.63631 39.6989C7.45683 39.6989 9.32087 39.7254 11.1141 39.7254L13.3468 39.7117C13.9033 39.7296 14.4709 39.7587 15.0154 39.7587C15.1247 39.7023 15.4405 39.7407 15.5787 39.7407L18.1119 39.7288C18.2604 39.7271 18.4098 39.7271 18.5583 39.7271C18.9262 39.7356 19.2932 39.745 19.6602 39.7552L21.4449 39.7399C21.9809 39.7501 22.5177 39.7595 23.0537 39.768L27.8487 39.7578C29.8348 39.7578 31.9404 39.7877 34.0127 39.7877L35.0249 39.8158H42.9155C43.2399 39.8158 45.2456 39.7689 45.3446 39.8807C45.4376 39.9891 45.412 41.4631 45.4061 41.714C45.3531 43.5141 45.3864 45.4396 45.3864 47.2601C45.3864 47.5434 45.3992 49.3708 45.2558 49.4356C45.0681 49.5176 44.7881 49.4724 44.5824 49.4689L42.231 49.4638C39.7994 49.4638 37.4779 49.4408 35.1145 49.4408L27.8495 49.4339C26.5932 49.4126 25.359 49.3776 24.0975 49.4186C23.8995 49.4152 23.7007 49.41 23.5027 49.4032C22.5211 49.4032 21.5294 49.3785 20.5538 49.3785C19.0354 49.3785 17.5153 49.4331 15.9978 49.3571C15.6009 49.3375 15.2006 49.3836 14.8055 49.364C14.6288 49.3691 14.4538 49.3759 14.2789 49.3793C13.3614 49.3793 12.4208 49.3657 11.5024 49.3512L10.5499 49.3477C10.4108 49.3546 10.2725 49.3631 10.1343 49.3691C9.61789 49.3708 9.10238 49.3725 8.58601 49.3725C6.74245 49.3725 4.9023 49.3443 2.98789 49.3443H0.903643C0.662955 49.3443 0.271198 49.4041 0.0911096 49.2829C-0.0420366 49.1933 0.0100268 47.3642 0.0100268 47.0527C0.0100268 46.2922 0.0381923 45.559 0.0381923 44.8191L0.0484344 41.5152C0.0552624 41.085 0.0450208 40.6531 0.0655048 40.2332C0.0731863 40.0335 0.0279504 39.8201 0.126957 39.669ZM80.1939 39.8773C80.5874 40.007 81.2506 39.937 81.7123 39.937H84.9283C88.0624 39.937 91.3381 40.0173 94.5165 39.9686L94.9331 39.9968L95.1985 39.9788C95.6449 39.9387 96.0972 39.9968 96.5402 39.9968C96.7117 39.9234 96.9738 39.9882 97.1633 39.9882C97.5516 39.9882 97.9399 39.9968 98.3266 39.9968C98.4896 39.9234 99.1715 39.9968 99.3986 39.9968C99.5053 39.9464 99.6922 39.9882 99.8134 39.9899C100.202 39.9917 100.588 39.9934 100.975 39.9968H105.86C106.375 40.0036 106.891 40.0121 107.406 40.0181C108.917 39.9934 110.462 39.9985 111.962 40.0215C112.805 40.0352 113.649 39.9814 114.491 40.0318L118.215 40.0266C118.792 40.0352 119.367 40.0446 119.943 40.0548C122.895 40.0548 125.685 40.0847 128.546 40.0847H134.026C135.326 40.0915 136.627 40.0966 137.925 40.1018C138.937 40.0966 139.95 40.0932 140.962 40.0864C142.264 40.1077 143.688 40.1495 145.034 40.1111L146.205 40.1444C146.205 42.5615 146.175 44.9018 146.175 47.3207C146.175 47.6604 146.234 49.6174 146.089 49.7275C145.908 49.8624 144.989 49.7711 144.714 49.7677L141.709 49.7728C137.615 49.7728 133.552 49.731 129.5 49.731C119.424 49.731 109.696 49.6422 99.8142 49.6422C97.0002 49.6422 94.2631 49.5901 91.5942 49.6337C91.0693 49.6405 90.5572 49.6234 90.0476 49.6157C89.7591 49.6243 89.4724 49.6328 89.1839 49.6388L88.3184 49.6089C87.3113 49.6405 86.206 49.5722 85.1647 49.591C84.6364 49.5978 84.0731 49.6379 83.5542 49.5961C83.2273 49.5995 82.9004 49.6064 82.5743 49.6115C81.8523 49.6234 81.1422 49.6183 80.4304 49.6063C78.312 49.5714 76.0698 49.5833 73.8789 49.5833C72.4749 49.5833 71.047 49.5568 69.7104 49.5568C69.3144 49.5568 68.9311 49.5534 68.5189 49.5534C68.3508 49.5603 68.1826 49.5688 68.0128 49.5748C67.4725 49.5551 66.8964 49.5381 66.3732 49.5662C66.1146 49.5577 65.8577 49.5509 65.5982 49.5449L61.521 49.5398C61.1267 49.5466 60.7111 49.5799 60.333 49.5116C60.292 49.5014 60.2715 49.5099 60.2715 49.4647C60.7512 49.4015 61.1993 49.1045 61.5757 48.8331C62.4317 48.2143 63.1691 47.3992 63.8596 46.5892C64.0611 46.3528 64.2667 46.1027 64.4281 45.8441C64.5527 45.6444 64.7114 45.4822 64.8369 45.2842C65.2491 44.6193 65.6323 43.9442 65.8952 43.2085C66.2136 42.3149 66.5174 41.3513 66.5499 40.3211C66.5516 40.2528 66.5362 39.9362 66.584 39.9362V39.9063C71.1664 39.9063 75.6388 39.9362 80.1615 39.9362C80.1735 39.9174 80.1837 39.8969 80.1939 39.8773Z" fill="#2566AF"/>
<path fill-rule="evenodd" clip-rule="evenodd" d="M99.7861 41.4678V41.5275C99.8193 41.5104 99.8441 41.5122 99.8441 41.4678H99.7861ZM120.599 46.6485V46.7083C120.63 46.6912 120.658 46.6929 120.658 46.6485H120.599ZM67.9854 49.0904C67.9854 49.1305 67.9658 49.1792 68.0153 49.1792C68.0153 49.139 68.0051 49.151 68.0452 49.151C68.0255 49.1306 68.0056 49.1104 67.9854 49.0904Z" fill="black"/>
</svg>
