<svg width="150" height="44" viewBox="0 0 150 44" fill="none" xmlns="http://www.w3.org/2000/svg">
<g clip-path="url(#clip0_330_6)">
<path d="M14.8831 43.7869C14.8531 43.7689 14.8231 43.7389 14.7931 43.709C14.2654 43.0554 11.0154 38.9718 7.70536 33.731C6.70996 32.064 6.06835 30.7567 6.18827 30.4209C6.51208 29.5455 12.2866 29.0658 14.0675 29.8573C14.6072 30.0971 14.5952 30.4149 14.5952 30.6008C14.5952 31.4043 14.5533 33.5511 14.5533 33.5511C14.5533 33.9948 14.913 34.3546 15.3568 34.3546C15.8005 34.3546 16.1603 33.9948 16.1603 33.5451L16.1543 28.1843C16.1543 27.7166 15.6506 27.6026 15.5547 27.5846C14.6252 27.5786 12.7423 27.5726 10.7156 27.5726C6.24824 27.5726 5.25284 27.7585 4.49129 27.2608C2.84228 26.1935 0.155893 18.9258 0.089933 14.8363C-1.30313e-05 9.06775 3.41194 4.07275 8.20906 1.59623C10.2119 0.582842 12.4785 0.0131836 14.8711 0.0131836C22.4685 0.0131836 28.7228 5.76373 29.5563 13.1633V13.1813C29.7062 14.9682 19.8781 15.352 17.9352 14.8303C17.6354 14.7523 17.5634 14.4465 17.5634 14.3146C17.5634 12.9534 17.5515 9.12771 17.5515 9.12771C17.5515 8.68398 17.1917 8.3242 16.7479 8.3242C16.3042 8.3242 15.9444 8.68398 15.9444 9.13371L15.9624 16.1855C15.9744 16.6292 16.3462 16.7491 16.4481 16.7671H22.5465C25.8025 16.7671 27.1697 17.1449 28.0751 17.8405C28.6808 18.3022 28.9146 19.1897 28.7108 20.341C26.8879 30.5708 15.3208 43.2532 14.8831 43.7869ZM46.2442 19.8913C49.1645 21.1445 50.9694 22.5357 50.9694 25.5938C50.9694 28.712 48.6128 30.7268 44.967 30.7268C42.0108 30.7268 39.6422 29.3836 38.4609 27.045L38.269 26.6672L41.7409 24.6464L41.9688 25.0182C42.7483 26.3014 43.6238 26.8471 44.8951 26.8471C45.9864 26.8471 46.724 26.3614 46.724 25.6358C46.724 24.8323 46.1903 24.5325 44.5473 23.8129L43.7138 23.4531C41.4831 22.4997 39.4203 21.1745 39.4203 17.9664C39.4203 15.0821 41.621 13.0733 44.7751 13.0733C47.1617 13.0733 48.8047 14.0028 49.932 15.9936L50.1419 16.3654L46.7779 18.5361L46.5441 18.1223C45.9804 17.1149 45.4527 16.911 44.7811 16.911C44.0795 16.911 43.6238 17.3008 43.6238 17.9064C43.6238 18.602 43.9596 18.9078 45.4167 19.5375L46.2442 19.8913ZM70.8355 20.4789L73.288 13.619H77.4975L71.2612 31.0086H70.3258L66.5421 22.8655C66.3682 22.4937 66.1823 22.032 66.0264 21.6062C65.8645 22.032 65.6786 22.4937 65.5047 22.8715L61.571 31.0146H60.6416L54.3034 13.625H58.8007L61.2772 20.4849C61.4331 20.9226 61.595 21.4563 61.7389 21.948C61.9068 21.4383 62.1107 20.8867 62.3206 20.4429L65.5766 13.4811H66.4761L69.7801 20.4429C69.99 20.8867 70.1939 21.4383 70.3618 21.948C70.5117 21.4503 70.6796 20.9166 70.8355 20.4789ZM82.4025 30.5109V13.2652H86.648V30.5109H82.4025ZM100.578 24.7124V20.8567H108.463V28.586L108.301 28.718C107.402 29.4615 105.009 30.7208 101.765 30.7208C96.2962 30.7208 92.4825 27.0869 92.4825 21.8821C92.4825 16.7731 96.1643 13.0674 101.243 13.0674C104.032 13.0674 106.082 13.8589 107.497 15.4779L107.773 15.7957L104.877 18.674L104.565 18.3502C103.756 17.5167 102.916 16.995 101.249 16.995C98.6528 16.995 96.8359 19.0038 96.8359 21.8821C96.8359 24.8803 98.7727 26.8171 101.777 26.8171C102.772 26.8171 103.81 26.6432 104.517 26.3674V24.7064L100.578 24.7124ZM122.105 24.7124V20.8567H129.99V28.586L129.828 28.718C128.923 29.4615 126.536 30.7208 123.292 30.7208C117.823 30.7208 114.01 27.0869 114.01 21.8821C114.01 16.7731 117.691 13.0674 122.764 13.0674C125.559 13.0674 127.603 13.8589 129.019 15.4779L129.294 15.7957L126.398 18.674L126.08 18.3502C125.271 17.5167 124.431 16.995 122.758 16.995C120.162 16.995 118.345 19.0038 118.345 21.8821C118.345 24.8803 120.282 26.8171 123.286 26.8171C124.281 26.8171 125.319 26.6432 126.026 26.3674V24.7064L122.105 24.7124ZM145.563 13.2652H150L143.908 24.7423V30.5109H139.638V24.9882L133.144 13.2712H137.881L140.879 18.7699C141.203 19.3696 141.539 20.1611 141.797 20.8027C142.043 20.1671 142.361 19.3816 142.684 18.7759L145.563 13.2652Z" fill="#FC8019"/>
</g>
<defs>
<clipPath id="clip0_330_6">
<rect width="150" height="43.8" fill="white"/>
</clipPath>
</defs>
</svg>
