<svg width="183" height="41" viewBox="0 0 183 41" fill="none" xmlns="http://www.w3.org/2000/svg">
<path d="M29.68 0.799998L19.96 29H9.92L0.16 0.799998H8.56L14.96 21.16L21.32 0.799998H29.68ZM53.5628 17.52C53.5628 18.1333 53.5228 18.7467 53.4428 19.36H38.6028C38.6828 20.5867 39.0161 21.5067 39.6028 22.12C40.2161 22.7067 40.9895 23 41.9228 23C43.2295 23 44.1628 22.4133 44.7228 21.24H53.0828C52.7361 22.7867 52.0561 24.1733 51.0428 25.4C50.0561 26.6 48.8028 27.5467 47.2828 28.24C45.7628 28.9333 44.0828 29.28 42.2428 29.28C40.0295 29.28 38.0561 28.8133 36.3228 27.88C34.6161 26.9467 33.2695 25.6133 32.2828 23.88C31.3228 22.1467 30.8428 20.1067 30.8428 17.76C30.8428 15.4133 31.3228 13.3867 32.2828 11.68C33.2428 9.94667 34.5761 8.61333 36.2828 7.68C38.0161 6.74667 40.0028 6.28 42.2428 6.28C44.4561 6.28 46.4161 6.73333 48.1228 7.64C49.8295 8.54667 51.1628 9.85333 52.1228 11.56C53.0828 13.24 53.5628 15.2267 53.5628 17.52ZM45.5628 15.56C45.5628 14.6 45.2428 13.8533 44.6028 13.32C43.9628 12.76 43.1628 12.48 42.2028 12.48C41.2428 12.48 40.4561 12.7467 39.8428 13.28C39.2295 13.7867 38.8295 14.5467 38.6428 15.56H45.5628ZM65.0513 6.28C66.5713 6.28 67.8913 6.58667 69.0113 7.2C70.1579 7.81333 71.0379 8.64 71.6513 9.68V6.56H79.4913V28.76C79.4913 30.8667 79.0913 32.76 78.2913 34.44C77.4913 36.1467 76.2379 37.5067 74.5312 38.52C72.8513 39.5333 70.7179 40.04 68.1313 40.04C64.6646 40.04 61.8913 39.2267 59.8112 37.6C57.7313 35.9733 56.5446 33.76 56.2513 30.96H63.9713C64.1313 31.68 64.5313 32.24 65.1713 32.64C65.8113 33.04 66.6379 33.24 67.6513 33.24C70.3179 33.24 71.6513 31.7467 71.6513 28.76V25.88C71.0379 26.92 70.1579 27.7467 69.0113 28.36C67.8913 28.9733 66.5713 29.28 65.0513 29.28C63.2646 29.28 61.6379 28.8133 60.1713 27.88C58.7313 26.9467 57.5846 25.6133 56.7313 23.88C55.9046 22.12 55.4913 20.08 55.4913 17.76C55.4913 15.44 55.9046 13.4133 56.7313 11.68C57.5846 9.94667 58.7313 8.61333 60.1713 7.68C61.6379 6.74667 63.2646 6.28 65.0513 6.28ZM71.6513 17.76C71.6513 16.32 71.2513 15.1867 70.4513 14.36C69.6779 13.5333 68.7179 13.12 67.5713 13.12C66.3979 13.12 65.4246 13.5333 64.6513 14.36C63.8779 15.16 63.4913 16.2933 63.4913 17.76C63.4913 19.2 63.8779 20.3467 64.6513 21.2C65.4246 22.0267 66.3979 22.44 67.5713 22.44C68.7179 22.44 69.6779 22.0267 70.4513 21.2C71.2513 20.3733 71.6513 19.2267 71.6513 17.76Z" fill="#03001C"/>
<path d="M92.5188 22.64H104.239V29H83.7188V23.04L95.3188 7.12H83.7188V0.799998H104.239V6.76L92.5188 22.64ZM118.93 29.28C116.69 29.28 114.677 28.8133 112.89 27.88C111.13 26.9467 109.743 25.6133 108.73 23.88C107.717 22.1467 107.21 20.1067 107.21 17.76C107.21 15.44 107.717 13.4133 108.73 11.68C109.77 9.94667 111.17 8.61333 112.93 7.68C114.717 6.74667 116.73 6.28 118.97 6.28C121.21 6.28 123.21 6.74667 124.97 7.68C126.757 8.61333 128.157 9.94667 129.17 11.68C130.21 13.4133 130.73 15.44 130.73 17.76C130.73 20.08 130.21 22.12 129.17 23.88C128.157 25.6133 126.757 26.9467 124.97 27.88C123.183 28.8133 121.17 29.28 118.93 29.28ZM118.93 22.48C120.023 22.48 120.93 22.08 121.65 21.28C122.397 20.4533 122.77 19.28 122.77 17.76C122.77 16.24 122.397 15.08 121.65 14.28C120.93 13.48 120.037 13.08 118.97 13.08C117.903 13.08 117.01 13.48 116.29 14.28C115.57 15.08 115.21 16.24 115.21 17.76C115.21 19.3067 115.557 20.48 116.25 21.28C116.943 22.08 117.837 22.48 118.93 22.48ZM148.6 6.36C151.186 6.36 153.24 7.22666 154.76 8.96C156.28 10.6667 157.04 12.9867 157.04 15.92V29H149.2V16.96C149.2 15.68 148.866 14.68 148.2 13.96C147.533 13.2133 146.64 12.84 145.52 12.84C144.346 12.84 143.426 13.2133 142.76 13.96C142.093 14.68 141.76 15.68 141.76 16.96V29H133.92V6.56H141.76V9.76C142.453 8.74666 143.386 7.93333 144.56 7.32C145.733 6.68 147.08 6.36 148.6 6.36ZM182.782 17.52C182.782 18.1333 182.742 18.7467 182.662 19.36H167.822C167.902 20.5867 168.235 21.5067 168.822 22.12C169.435 22.7067 170.208 23 171.142 23C172.448 23 173.382 22.4133 173.942 21.24H182.302C181.955 22.7867 181.275 24.1733 180.262 25.4C179.275 26.6 178.022 27.5467 176.502 28.24C174.982 28.9333 173.302 29.28 171.462 29.28C169.248 29.28 167.275 28.8133 165.542 27.88C163.835 26.9467 162.488 25.6133 161.502 23.88C160.542 22.1467 160.062 20.1067 160.062 17.76C160.062 15.4133 160.542 13.3867 161.502 11.68C162.462 9.94667 163.795 8.61333 165.502 7.68C167.235 6.74667 169.222 6.28 171.462 6.28C173.675 6.28 175.635 6.73333 177.342 7.64C179.048 8.54667 180.382 9.85333 181.342 11.56C182.302 13.24 182.782 15.2267 182.782 17.52ZM174.782 15.56C174.782 14.6 174.462 13.8533 173.822 13.32C173.182 12.76 172.382 12.48 171.422 12.48C170.462 12.48 169.675 12.7467 169.062 13.28C168.448 13.7867 168.048 14.5467 167.862 15.56H174.782Z" fill="#06C167"/>
</svg>
