<svg width="150" height="32" viewBox="0 0 150 32" fill="none" xmlns="http://www.w3.org/2000/svg">
<g clip-path="url(#clip0_330_2)">
<path d="M22.8895 8.02686L22.7546 12.3237L11.4435 24.5054C16.1683 24.5054 19.1643 24.4596 20.892 24.3646C20.3913 26.6764 19.9841 28.5664 19.5739 31.3998C17.3017 31.2097 13.7594 31.1622 10.2154 31.1622C6.26468 31.1622 2.81174 31.2091 0.0406342 31.3998L0.132984 27.0543L11.4435 14.9213C6.49196 14.9213 4.67434 14.9676 2.63124 15.0152C3.084 12.843 3.40242 10.4361 3.72025 8.02686C7.30872 8.16827 8.71676 8.21461 13.396 8.21461C17.7119 8.2152 20.1634 8.16827 22.8895 8.02686ZM35.746 6.75064C28.385 6.75064 22.7546 13.2666 22.7546 21.06C22.7546 26.914 26.1608 31.3998 32.7926 31.3998C40.1974 31.3998 45.7846 24.8827 45.7846 17.0436C45.7852 11.2388 42.4678 6.75064 35.746 6.75064ZM33.5194 25.137C31.8835 25.137 30.9306 23.6712 30.9306 20.7914C30.9306 16.4946 32.702 13.0486 34.8837 13.0486C36.4722 13.0486 37.4263 14.4662 37.4263 17.3917C37.4257 21.641 35.701 25.137 33.5194 25.137ZM139.788 6.42743C132.333 6.42743 126.627 13.0295 126.627 20.9209C126.627 26.8546 130.078 31.3998 136.797 31.3998C144.298 31.3998 149.959 24.7971 149.959 16.8564C149.96 10.9732 146.602 6.42743 139.788 6.42743ZM137.392 25.112C135.756 25.112 134.804 23.6463 134.804 20.7665C134.804 16.4696 136.576 13.0242 138.757 13.0242C140.345 13.0242 141.301 14.4406 141.301 17.3668C141.299 21.6179 139.573 25.112 137.392 25.112ZM83.9864 15.251C84.5777 11.2388 84.2599 7.60205 79.7635 7.60205C76.4923 7.60205 72.9494 10.341 70.4511 14.9213C70.9968 11.1425 70.6778 7.60205 66.2264 7.60205C62.8652 7.60205 59.2312 10.4819 56.7317 15.251C57.368 12.1348 57.2324 8.59249 57.0501 7.83733C54.4613 8.26274 52.191 8.49802 49.0103 8.59248C49.1014 10.7653 48.9647 13.5964 48.5557 16.2902L47.5111 23.3718C47.1021 26.1589 46.6475 29.3696 46.193 31.4004H54.6424C54.6886 30.1711 55.007 28.236 55.2337 26.5362L55.9605 21.6737C56.5506 18.5081 59.0938 14.7799 61.047 14.7799C62.1828 14.7799 62.1384 15.8654 61.82 17.8956L61.002 23.3712C60.5918 26.1583 60.1391 29.369 59.6839 31.3998H68.2239C68.2701 30.1705 68.5423 28.2354 68.769 26.5356L69.4952 21.6731C70.0865 18.5075 72.6315 14.7793 74.5835 14.7793C75.7205 14.7793 75.6755 15.8167 75.492 17.2343L73.4519 31.3992H81.2459L83.9864 15.251ZM124.795 23.9867L123.887 29.5592C122.478 30.3143 119.843 31.401 116.8 31.401C111.621 31.401 110.577 28.662 111.393 22.8543L112.712 13.5049H110.163L110.883 7.45292L113.665 7.31983L114.71 2.92853L122.568 0L121.569 7.31924H126.975C126.794 8.07439 126.156 12.231 125.978 13.5043H120.705L119.524 22.1455C119.206 24.3646 119.389 25.1679 120.931 25.1679C122.07 25.1667 123.749 24.5054 124.795 23.9867ZM94.9887 26.9966C97.8486 26.6455 99.8167 23.9142 100.29 21.1889L100.37 20.4587C99.1409 20.1866 97.3646 19.9792 95.6424 20.1878C94.0022 20.3856 92.6374 21.0612 91.9034 22.0391C91.3499 22.7414 91.0716 23.5815 91.1952 24.5832C91.3817 26.0834 93.0565 27.2301 94.9887 26.9966ZM92.5546 31.3125C88.5182 31.8038 85.8598 30.2163 85.0617 26.6057C84.5609 24.3337 85.2559 21.7456 86.4715 20.2014C88.0996 18.1819 90.7526 16.8855 93.9902 16.494C96.5958 16.1737 98.7913 16.3318 100.845 16.7168L100.93 16.368C100.988 15.8101 101.048 15.2534 100.966 14.5868C100.753 12.8751 99.3903 11.8555 96.0261 12.2655C93.7564 12.5417 91.5969 13.3539 89.9202 14.2784L88.2891 9.39517C90.5619 8.10232 93.4265 7.11842 96.705 6.71975C102.967 5.95865 107.368 7.93715 107.932 12.4859C108.081 13.6956 108.099 14.9777 107.945 16.1411C107.141 21.7652 106.625 25.9973 106.399 28.8337C106.363 29.2728 106.366 30.0274 106.405 31.0968L98.6341 31.0897C98.7997 30.6465 98.9478 30.0452 99.0797 29.2912C99.1673 28.7951 99.2296 28.1695 99.2686 27.4113C97.6261 29.6441 95.3683 30.9703 92.5546 31.3125Z" fill="#E23744"/>
</g>
<defs>
<clipPath id="clip0_330_2">
<rect width="150" height="31.8038" fill="white"/>
</clipPath>
</defs>
</svg>
